<svg viewBox="0 0 24 24" aria-hidden="true" style="height:22px;width:22px" display="block" fill="currentcolor"><path d="M12.499 16.794c-2.382 0-4.32-1.921-4.32-4.283s1.938-4.283 4.32-4.283c2.383 0 4.32 1.92 4.32 4.283s-1.937 4.283-4.32 4.283m6.5-4.283c0-2.887-1.928-5.304-4.568-6.123-.007-.017-.028-.03-.067-.043-.31-.101-.337-.691-.337-1.085v-.747a.508.508 0 00-.51-.506h-2.059a.508.508 0 00-.51.506v.747c0 .42-.08 1.005-.379 1.105-.037.012-.055.025-.057.041C7.9 7.241 6 9.645 6 12.511c0 2.932 1.986 5.384 4.69 6.164v.019c.22.058.258.15.258.487v1.298c0 .28.228.506.51.506h2.059c.282 0 .51-.226.51-.506v-1.505c.021-.173.084-.236.25-.28v-.01c2.72-.77 4.721-3.229 4.721-6.173"/><path d="M14.064 14.845a.859.859 0 01-.543-.192l-1.566-1.269a.854.854 0 01-.315-.66v-2.63c0-.471.384-.852.859-.852.474 0 .859.381.859.851v2.227l1.25 1.013a.847.847 0 01.122 1.2.861.861 0 01-.666.312"/></svg>